<svg width="38" height="38" viewBox="0 0 38 38" fill="none" xmlns="http://www.w3.org/2000/svg">
<circle cx="19" cy="19" r="19" fill="#E60023"/>
<path d="M19.318 9C20.0501 9.17523 20.5782 9.68774 21.1634 10.1012C21.493 10.3341 21.8336 10.4571 22.239 10.4409C22.6324 10.4253 23.0264 10.4361 23.4203 10.4379C24.3448 10.4409 25.0647 10.954 25.3561 11.82C25.4969 12.2382 25.6347 12.6577 25.7677 13.0784C25.8593 13.3683 26.0299 13.5951 26.2794 13.7715C26.6551 14.0368 27.0303 14.3026 27.3988 14.5781C28.095 15.099 28.3603 15.9104 28.1059 16.7361C27.9694 17.179 27.8212 17.6189 27.6743 18.0588C27.5827 18.3312 27.5827 18.6001 27.6737 18.8731C27.8188 19.3058 27.9621 19.7391 28.098 20.1748C28.3657 21.0294 28.0932 21.8491 27.3648 22.3832C26.9999 22.6509 26.6369 22.9215 26.2612 23.173C25.8296 23.4617 25.7483 23.9303 25.6074 24.3678C25.5904 24.42 25.6523 24.5041 25.69 24.5659C26.3796 25.6917 27.0734 26.8151 27.7618 27.9421C28.0853 28.472 28.0094 29.0476 27.5772 29.4304C27.3593 29.6237 27.1019 29.7149 26.8093 29.7149C26.2418 29.7155 25.6736 29.7221 25.106 29.7143C24.9634 29.7125 24.8911 29.7611 24.8286 29.8829C24.5834 30.3636 24.3254 30.8377 24.0771 31.3166C23.8634 31.7295 23.5356 31.9803 23.0603 31.9965C22.5844 32.0133 22.2421 31.7841 21.9993 31.3868C21.3073 30.2538 20.611 29.1232 19.916 27.9913C19.8735 27.9217 19.8286 27.8533 19.7782 27.7741C19.2658 27.9721 18.7565 27.9859 18.2297 27.7711C18.1799 27.8473 18.1307 27.9193 18.0852 27.9937C17.3853 29.131 16.6884 30.27 15.9861 31.406C15.6802 31.9011 15.1951 32.0986 14.6713 31.9569C14.3459 31.8687 14.1134 31.6659 13.958 31.3742C13.694 30.8779 13.4281 30.3828 13.1713 29.8823C13.1082 29.7593 13.0347 29.7125 12.8927 29.7143C12.3779 29.7227 11.8626 29.7053 11.3484 29.7185C10.8464 29.7311 10.4355 29.5799 10.1829 29.1322C9.93042 28.6839 10.0312 28.262 10.2934 27.8431C10.9696 26.7617 11.6289 25.6701 12.3015 24.5863C12.3846 24.4518 12.3828 24.342 12.3476 24.1926C12.2195 23.6417 11.913 23.2378 11.4255 22.9462C11.1481 22.7799 10.8944 22.5747 10.6334 22.3826C9.90493 21.8473 9.63298 21.0288 9.90128 20.1742C10.0379 19.7391 10.1805 19.3052 10.3256 18.8725C10.4166 18.5995 10.416 18.3306 10.325 18.0582C10.1805 17.6255 10.0367 17.1922 9.90068 16.7565C9.63298 15.9002 9.90614 15.0828 10.6358 14.5499C10.9891 14.2918 11.3436 14.0362 11.7017 13.7853C11.9646 13.6011 12.143 13.3635 12.2383 13.0568C12.3664 12.6421 12.5048 12.231 12.6438 11.82C12.9376 10.9516 13.6539 10.4415 14.5796 10.4385C15.0039 10.4373 15.4276 10.4313 15.8513 10.4403C16.1913 10.4475 16.4917 10.3569 16.7607 10.1522C16.9221 10.0292 17.0915 9.91518 17.256 9.79516C17.6979 9.47049 18.1283 9.12783 18.6819 9C18.8937 9 19.1056 9 19.318 9ZM22.6937 25.7541C22.9359 25.7541 23.1781 25.7553 23.4209 25.7541C24.0152 25.7505 24.4474 25.4462 24.6368 24.8905C24.7867 24.4518 24.93 24.0102 25.0751 23.5703C25.2086 23.1658 25.4526 22.8411 25.7999 22.5909C26.161 22.331 26.5228 22.0724 26.8828 21.8113C27.4012 21.4351 27.5614 20.9556 27.3684 20.3542C27.2379 19.9486 27.1068 19.5429 26.9696 19.139C26.8172 18.6901 26.8172 18.2448 26.969 17.7959C27.1056 17.3921 27.2379 16.9864 27.3678 16.5807C27.5614 15.977 27.403 15.4993 26.8846 15.1224C26.5368 14.8698 26.1896 14.6171 25.8375 14.3705C25.446 14.0962 25.1868 13.7319 25.0435 13.2806C24.9148 12.8744 24.78 12.4699 24.6441 12.0654C24.4492 11.4869 24.034 11.1868 23.4221 11.1826C22.9978 11.1796 22.5741 11.1784 22.1498 11.1826C21.6399 11.188 21.1834 11.0458 20.7761 10.7367C20.4459 10.4865 20.1054 10.2488 19.7666 10.01C19.2495 9.64513 18.7323 9.65173 18.2139 10.0244C17.8897 10.2578 17.5583 10.4817 17.2414 10.7247C16.8153 11.0512 16.3376 11.1928 15.8034 11.1832C15.387 11.176 14.9705 11.1778 14.5541 11.1826C13.9677 11.1892 13.5489 11.4923 13.3619 12.0438C13.2205 12.4621 13.0845 12.8816 12.9485 13.3016C12.8053 13.7445 12.5455 14.101 12.1618 14.3711C11.811 14.6189 11.4619 14.8698 11.1141 15.1218C10.5945 15.4993 10.4367 15.974 10.6315 16.5795C10.762 16.9852 10.8938 17.3909 11.0303 17.7947C11.1815 18.2436 11.1815 18.6889 11.0291 19.1378C10.8919 19.5417 10.7608 19.9474 10.6303 20.353C10.4367 20.9562 10.5951 21.4321 11.1153 21.8095C11.451 22.0532 11.7855 22.298 12.126 22.5345C12.5388 22.8201 12.815 23.1964 12.9613 23.6741C13.0882 24.0888 13.2266 24.5005 13.3674 24.9103C13.5489 25.4384 13.989 25.7487 14.5541 25.7523C15.0082 25.7553 15.4628 25.7559 15.9169 25.7523C16.3716 25.7487 16.7801 25.8801 17.1467 26.1442C17.514 26.4082 17.8806 26.6735 18.2503 26.9339C18.7383 27.2778 19.2561 27.279 19.7466 26.9351C20.0981 26.6885 20.4483 26.4388 20.7937 26.1832C21.1895 25.8897 21.629 25.7391 22.1249 25.7529C22.3155 25.7583 22.5049 25.7541 22.6937 25.7541ZM12.7039 25.3652C12.673 25.4114 12.6341 25.463 12.6007 25.5177C12.0356 26.437 11.4729 27.3582 10.9059 28.2764C10.8064 28.4378 10.7329 28.5957 10.841 28.7775C10.9478 28.9575 11.125 28.9791 11.3138 28.9791C11.9263 28.9791 12.5394 28.9935 13.1519 28.9785C13.4311 28.9719 13.6005 29.0668 13.7237 29.3158C13.9926 29.8589 14.2858 30.3906 14.5657 30.9283C14.6519 31.094 14.7441 31.2446 14.9596 31.2524C15.183 31.2602 15.2917 31.1138 15.3936 30.9463C16.0899 29.8085 16.7898 28.6725 17.4885 27.5359C17.5188 27.4866 17.5455 27.4356 17.5801 27.3732C17.3203 27.1854 17.0648 27.0126 16.8232 26.8229C16.5185 26.5835 16.1791 26.4796 15.7912 26.4905C15.3833 26.5019 14.9742 26.4923 14.5657 26.4929C14.0357 26.4941 13.5653 26.3302 13.1883 25.9599C13.0099 25.7853 12.8696 25.5711 12.7039 25.3652ZM20.4265 27.3564C20.4447 27.4068 20.4489 27.429 20.4605 27.447C21.1938 28.6431 21.9252 29.8397 22.6634 31.0327C22.8619 31.3532 23.2145 31.3322 23.396 30.9949C23.6977 30.4338 23.9994 29.8727 24.2859 29.3038C24.4013 29.0746 24.553 28.9731 24.8189 28.9791C25.4393 28.9929 26.0603 28.9791 26.6812 28.9791C26.87 28.9791 27.0479 28.9605 27.1565 28.7805C27.2725 28.5885 27.1869 28.4252 27.0843 28.259C26.5246 27.3528 25.968 26.4442 25.4095 25.5375C25.3719 25.4763 25.33 25.4174 25.2802 25.3424C25.2523 25.382 25.2341 25.4036 25.2201 25.4276C24.8165 26.1502 24.1961 26.5013 23.3633 26.4941C22.9468 26.4905 22.5298 26.4814 22.114 26.4989C21.9143 26.5073 21.6891 26.5241 21.5234 26.6195C21.1403 26.8397 20.787 27.1098 20.4265 27.3564Z" fill="white"/>
<path d="M18.9976 25.6953C14.9712 25.6917 11.6842 22.4391 11.6878 18.4639C11.6915 14.4791 14.9712 11.2414 19.0025 11.2426C23.0337 11.2438 26.3141 14.4863 26.3122 18.4687C26.3104 22.4469 23.0185 25.6995 18.9976 25.6953ZM18.9903 11.9778C15.3682 11.9904 12.4369 14.8998 12.4442 18.4753C12.4515 22.0664 15.3979 24.962 19.0316 24.9487C22.6367 24.9361 25.5656 22.0208 25.5553 18.4561C25.545 14.874 22.5973 11.9658 18.9903 11.9778Z" fill="white"/>
<path d="M16.1992 21.8479C16.3024 21.2772 16.3831 20.6711 16.5282 20.0806C16.6326 19.6539 16.5567 19.3496 16.2083 19.061C15.7688 18.6967 15.3737 18.279 14.956 17.8884C14.8006 17.7425 14.698 17.5829 14.7709 17.3638C14.8419 17.1502 15.004 17.0632 15.2231 17.035C15.8836 16.9498 16.5422 16.8459 17.2032 16.7667C17.4497 16.7373 17.5911 16.6191 17.6925 16.4067C17.9693 15.8257 18.2582 15.2514 18.5369 14.6717C18.6328 14.4725 18.7542 14.3224 19.0012 14.3236C19.2483 14.3242 19.3691 14.4749 19.4644 14.6741C19.743 15.2538 20.0326 15.8281 20.3088 16.4091C20.4101 16.6215 20.5534 16.7385 20.7986 16.7679C21.4597 16.8465 22.1183 16.951 22.7787 17.0362C22.9985 17.0644 23.1587 17.1544 23.2285 17.3674C23.3002 17.5865 23.1964 17.7467 23.0416 17.892C22.5645 18.3408 22.0934 18.7957 21.6133 19.241C21.4384 19.4036 21.3802 19.5759 21.4287 19.8147C21.5604 20.4599 21.6685 21.1098 21.7875 21.7579C21.8245 21.9602 21.7881 22.1372 21.6133 22.2644C21.4384 22.3922 21.2563 22.3754 21.073 22.2782C20.486 21.9674 19.8954 21.6619 19.3132 21.3426C19.0923 21.2214 18.8999 21.2238 18.6795 21.3444C18.0974 21.6643 17.5092 21.9734 16.9191 22.2782C16.5567 22.4667 16.1895 22.2578 16.1992 21.8479Z" fill="white"/>
</svg>
